<svg width="294" height="197" viewBox="0 0 294 197" fill="none" xmlns="http://www.w3.org/2000/svg">
<path d="M1.60001 73.0001C7.52735 70.0364 14.4196 69.815 20.3556 73.4001C39.1771 84.7675 36.0199 113.851 33.0667 131.978C31.1522 143.729 25.0491 178.916 26.7556 167.133C33.3214 121.798 36.2174 75.9224 41.4222 30.4223C41.4871 29.8549 44.4908 7.91799 45.3333 10.3334C52.4764 30.8103 52.8499 54.1116 57.2445 75.2667C59.6404 86.8006 62.0346 99.8105 68.8889 109.711C73.839 116.861 79.6884 85.5096 80.0889 83.4001C82.4993 70.7028 82.2104 56.4253 86.4 44.1556C87.727 40.2693 88.5462 44.6496 88.9333 46.3334C90.89 54.8447 92.3779 63.4594 94.3111 71.9778C95.0364 75.1738 97.5424 92.5356 104.711 87.5778C117.114 79.0003 119.043 56.7994 119.822 43.2223C119.996 40.1966 119.493 36.6571 120.133 33.6667C120.827 30.4317 124.38 38.8225 125.822 41.8001C137.502 65.9124 137.685 88.4026 127.689 113.533C117.513 139.115 100.63 161.849 84.6222 184.022C82.6537 186.749 78.4 190.846 78.4 194.6" stroke="black" stroke-width="3" stroke-linecap="round"/>
<path d="M142.4 58.6C142.899 53.6083 147.385 48.7248 150.222 44.9111C150.703 44.2651 158.732 33.5033 159.2 35.8444C162.197 50.83 157.59 68.3576 156.533 83.4C156.098 89.5979 157.015 102.647 166.756 100.2C185.242 95.556 195.488 72.1366 200.978 56.1111C204.952 44.5099 207.588 31.2986 207.022 18.9555C206.716 12.264 206.16 13.9648 208.267 19.9333C211.729 29.7419 216.375 40.3707 224.267 47.4889C238.103 59.969 241.541 24.5078 241.6 17.2666C241.61 16.0051 240.801 10.613 242.756 13.8889C245.471 18.4395 248.198 23.5146 252.444 26.8667C263.268 35.4112 271.071 7.32763 274.4 2.33331C274.917 1.55834 279.618 11.4138 279.911 11.9333C283.886 18.9875 288.097 25.9028 292 33" stroke="black" stroke-width="3" stroke-linecap="round"/>
</svg>
