<svg version="1.1" id="Layer_1" xmlns="http://www.w3.org/2000/svg" xmlns:xlink="http://www.w3.org/1999/xlink" x="0px" y="0px"
	 width="100%" viewBox="0 0 590 246" enable-background="new 0 0 590 246" xml:space="preserve">
<path fill="#000000" opacity="1.000000" stroke="none" 
	d="
M367.000000,247.000000 
	C244.666687,247.000000 122.833359,247.000000 1.000033,247.000000 
	C1.000022,165.000031 1.000022,83.000046 1.000011,1.000055 
	C197.666626,1.000036 394.333252,1.000036 590.999878,1.000018 
	C590.999939,82.999947 590.999939,164.999893 591.000000,246.999908 
	C516.500000,247.000000 442.000000,247.000000 367.000000,247.000000 
M159.538498,182.260941 
	C160.946686,182.758392 162.401138,183.791031 163.756195,183.673874 
	C188.546402,181.530701 213.354004,179.523666 238.092636,176.877548 
	C249.766815,175.628845 261.680328,174.308716 272.809387,170.847351 
	C287.252625,166.355194 294.922455,158.741913 291.115051,142.359329 
	C287.846436,128.295013 285.367096,114.045761 282.019806,100.001961 
	C280.649475,94.252792 278.341370,88.613304 275.669769,83.322937 
	C273.395752,78.819832 270.075989,79.267097 267.704041,83.786621 
	C263.610229,91.587013 259.933655,99.652863 255.247467,107.080856 
	C251.653671,112.777351 246.951813,117.827309 242.342697,122.793510 
	C241.201843,124.022766 238.508026,123.810722 236.528061,124.261223 
	C236.213989,122.429031 235.271423,120.438103 235.687576,118.790337 
	C238.450821,107.849510 241.631821,97.014297 244.403229,86.075394 
	C245.537186,81.599586 246.551498,76.944344 246.495468,72.384544 
	C246.470673,70.366936 243.770325,66.881500 242.071152,66.746414 
	C239.683121,66.556564 236.154984,68.209549 234.754501,70.218002 
	C228.009674,79.890945 222.100677,90.147469 215.338623,99.807365 
	C209.639191,107.949234 203.440765,115.785210 196.942505,123.306717 
	C193.533295,127.252747 190.343628,126.080544 189.340286,120.940315 
	C188.612747,117.213058 187.734894,113.228416 188.320969,109.583122 
	C190.403595,96.629105 192.934158,83.740318 195.580475,70.885582 
	C198.352783,57.418911 203.335312,44.375202 203.007492,30.329891 
	C202.802078,21.529375 198.793396,19.035398 190.816971,22.579483 
	C178.791565,27.922600 170.414703,37.622791 161.527008,46.712460 
	C156.215866,52.144287 151.103180,57.770153 145.890060,63.320755 
	C143.341995,61.238293 141.273209,59.343765 139.003311,57.732574 
	C133.351471,53.720871 127.325386,52.025612 120.887253,55.831085 
	C119.833763,56.453781 119.323463,57.995438 118.562119,59.112370 
	C119.696808,59.473133 120.821922,60.102360 121.968010,60.143211 
	C125.126213,60.255764 128.662369,59.212227 131.365967,60.309277 
	C134.982193,61.776649 138.329361,64.499268 140.922729,67.447548 
	C141.515564,68.121529 138.655563,71.983101 137.199402,74.259041 
	C136.130234,75.930107 134.736740,77.390915 133.525070,78.973984 
	C122.628433,93.210648 112.994041,108.123024 109.616257,126.133034 
	C108.179153,133.795547 108.410042,141.353149 112.699852,148.348007 
	C116.221367,154.090103 122.367950,155.393799 127.413452,150.948044 
	C131.133255,147.670380 134.930984,144.326141 137.950516,140.434677 
	C154.336563,119.316940 161.877945,96.608376 149.949188,70.497658 
	C149.152771,68.754379 149.598022,65.336380 150.851151,63.945366 
	C158.533401,55.417713 166.139633,46.710480 174.723694,39.143620 
	C180.904175,33.695518 187.211533,27.620258 197.538422,25.785929 
	C197.538422,30.772869 198.239410,35.397068 197.415787,39.731571 
	C194.037460,57.510784 190.004425,75.165474 186.614761,92.942719 
	C185.221375,100.250397 184.624268,107.736801 184.109543,115.172684 
	C183.884186,118.428284 184.002808,122.138412 185.379898,124.948997 
	C186.669815,127.581665 189.495865,130.147797 192.241211,131.222702 
	C196.508926,132.893646 200.073120,130.090790 202.378510,126.697830 
	C212.159073,112.303322 221.707260,97.750984 231.353394,83.264999 
	C233.930099,79.395477 236.553009,75.556740 239.154724,71.703873 
	C239.884109,71.959999 240.613480,72.216133 241.342865,72.472260 
	C240.633774,76.871262 240.218063,81.342331 239.158783,85.655327 
	C236.344711,97.113075 233.089966,108.463425 230.331024,119.933578 
	C228.592636,127.160820 234.758804,132.453934 241.711670,129.792557 
	C243.941925,128.938873 246.292358,127.431290 247.692459,125.554810 
	C252.233826,119.468323 256.545105,113.188591 260.591797,106.760895 
	C264.325378,100.830490 267.603455,94.613281 271.519684,87.756317 
	C272.685516,89.875343 273.395081,90.810982 273.751617,91.865936 
	C279.717560,109.518929 284.949188,127.332344 287.196838,145.941177 
	C288.010681,152.679123 285.826141,157.174622 280.640778,161.389938 
	C272.679779,167.861679 263.017578,169.197098 253.696014,170.749130 
	C240.133575,173.007248 226.334579,173.911209 212.613205,175.130981 
	C196.247665,176.585770 179.852966,177.712280 163.486160,179.154175 
	C162.075241,179.278488 160.778427,180.697937 159.538498,182.260941 
M438.241577,116.371239 
	C439.468445,119.805717 440.338806,123.424866 442.001068,126.633797 
	C444.891846,132.214294 450.513550,133.575912 455.425415,130.048920 
	C456.503418,129.274887 456.824921,127.447281 457.494781,126.104851 
	C456.076599,125.802849 454.481201,124.924965 453.270630,125.297539 
	C447.731720,127.002235 446.362610,126.277039 444.982147,120.609825 
	C443.843994,115.937172 442.812103,111.189377 441.061859,106.738861 
	C440.343475,104.912247 437.862579,103.778778 436.183411,102.330032 
	C434.945587,103.919060 433.443542,105.368698 432.518188,107.122604 
	C429.437592,112.961693 426.669495,118.967232 423.523315,124.768898 
	C422.882599,125.950409 421.118011,126.522446 419.871521,127.375443 
	C419.258728,125.944511 418.184143,124.531380 418.128143,123.078979 
	C418.007233,119.943886 418.506256,116.790764 418.575043,113.641151 
	C418.683136,108.691742 418.813690,103.729866 418.541504,98.794952 
	C418.479675,97.673981 416.808136,96.641785 415.877533,95.568741 
	C414.924622,96.569511 413.710052,97.424576 413.059082,98.593506 
	C406.293243,110.742905 399.768311,123.029785 392.803528,135.062607 
	C391.219818,137.798767 388.494965,140.179092 385.767090,141.872009 
	C382.273895,144.039871 379.141724,142.386490 379.200836,138.340637 
	C379.316467,130.420349 379.585205,122.432808 380.745331,114.614777 
	C382.204315,104.782623 384.692566,95.106010 386.523468,85.322372 
	C386.731384,84.211311 385.565186,82.843094 385.036163,81.594131 
	C384.054962,82.460442 382.547699,83.142715 382.170715,84.220398 
	C375.500427,103.287506 366.223694,120.789368 350.404999,133.830719 
	C343.919647,139.177460 336.437103,143.533997 327.295837,142.962509 
	C323.328735,142.714493 320.919495,140.950806 322.682861,136.923569 
	C325.397003,130.725021 327.985870,124.264893 331.916473,118.851357 
	C338.835022,109.322479 344.974060,99.703781 346.326843,87.680809 
	C346.903137,82.558807 345.165680,81.049896 340.137421,82.547852 
	C332.671387,84.772049 325.137695,86.775223 317.705017,89.103149 
	C312.929230,90.598938 308.283112,92.508881 303.578888,94.233185 
	C303.681854,94.727539 303.784821,95.221893 303.887787,95.716248 
	C309.973145,98.569389 315.941925,96.761734 321.911102,94.480980 
	C328.039001,92.139572 334.179108,89.830116 340.828613,87.311722 
	C341.346558,95.141449 336.804474,100.032921 333.965149,105.475708 
	C328.824921,115.329208 323.115662,124.885773 317.971130,134.737152 
	C315.188782,140.065079 316.590393,145.328339 321.479950,146.898712 
	C325.387146,148.153595 330.052429,148.793640 333.980042,147.914413 
	C346.134613,145.193558 355.321686,137.471771 362.888367,127.972328 
	C367.690887,121.943031 371.723572,115.300522 376.877075,107.804970 
	C376.591400,109.855354 376.458344,110.584740 376.392120,111.320129 
	C375.603943,120.069550 374.581512,128.807785 374.147858,137.575043 
	C373.931091,141.957565 375.886108,145.971375 380.379791,147.430771 
	C385.054840,148.949051 389.353271,147.639145 392.273529,143.462372 
	C396.826569,136.950272 401.266785,130.356995 405.639069,123.721825 
	C407.767395,120.492004 409.633850,117.089615 411.618835,113.765343 
	C412.117157,113.890846 412.615479,114.016342 413.113800,114.141846 
	C413.113800,118.059547 412.517975,122.103226 413.310822,125.853294 
	C413.897675,128.628937 415.770721,132.239487 418.040955,133.211014 
	C419.943512,134.025177 424.276520,132.336670 425.741272,130.400513 
	C430.112366,124.622650 433.602386,118.178223 437.046631,112.622963 
	C437.121155,112.850830 437.581024,114.256958 438.241577,116.371239 
z"/>
<path fill="#2F2F2F" opacity="1.000000" stroke="none" 
	d="
M159.483551,181.888351 
	C160.778427,180.697937 162.075241,179.278488 163.486160,179.154175 
	C179.852966,177.712280 196.247665,176.585770 212.613205,175.130981 
	C226.334579,173.911209 240.133575,173.007248 253.696014,170.749130 
	C263.017578,169.197098 272.679779,167.861679 280.640778,161.389938 
	C285.826141,157.174622 288.010681,152.679123 287.196838,145.941177 
	C284.949188,127.332344 279.717560,109.518929 273.751617,91.865936 
	C273.395081,90.810982 272.685516,89.875343 271.519684,87.756317 
	C267.603455,94.613281 264.325378,100.830490 260.591797,106.760895 
	C256.545105,113.188591 252.233826,119.468323 247.692459,125.554810 
	C246.292358,127.431290 243.941925,128.938873 241.711670,129.792557 
	C234.758804,132.453934 228.592636,127.160820 230.331024,119.933578 
	C233.089966,108.463425 236.344711,97.113075 239.158783,85.655327 
	C240.218063,81.342331 240.633774,76.871262 241.342865,72.472260 
	C240.613480,72.216133 239.884109,71.959999 239.154724,71.703873 
	C236.553009,75.556740 233.930099,79.395477 231.353394,83.264999 
	C221.707260,97.750984 212.159073,112.303322 202.378510,126.697830 
	C200.073120,130.090790 196.508926,132.893646 192.241211,131.222702 
	C189.495865,130.147797 186.669815,127.581665 185.379898,124.948997 
	C184.002808,122.138412 183.884186,118.428284 184.109543,115.172684 
	C184.624268,107.736801 185.221375,100.250397 186.614761,92.942719 
	C190.004425,75.165474 194.037460,57.510784 197.415787,39.731571 
	C198.239410,35.397068 197.538422,30.772869 197.538422,25.785929 
	C187.211533,27.620258 180.904175,33.695518 174.723694,39.143620 
	C166.139633,46.710480 158.533401,55.417713 150.851151,63.945366 
	C149.598022,65.336380 149.152771,68.754379 149.949188,70.497658 
	C161.877945,96.608376 154.336563,119.316940 137.950516,140.434677 
	C134.930984,144.326141 131.133255,147.670380 127.413452,150.948044 
	C122.367950,155.393799 116.221367,154.090103 112.699852,148.348007 
	C108.410042,141.353149 108.179153,133.795547 109.616257,126.133034 
	C112.994041,108.123024 122.628433,93.210648 133.525070,78.973984 
	C134.736740,77.390915 136.130234,75.930107 137.199402,74.259041 
	C138.655563,71.983101 141.515564,68.121529 140.922729,67.447548 
	C138.329361,64.499268 134.982193,61.776649 131.365967,60.309277 
	C128.662369,59.212227 125.126213,60.255764 121.968010,60.143211 
	C120.821922,60.102360 119.696808,59.473133 118.562119,59.112366 
	C119.323463,57.995438 119.833763,56.453781 120.887253,55.831085 
	C127.325386,52.025612 133.351471,53.720871 139.003311,57.732574 
	C141.273209,59.343765 143.341995,61.238293 145.890060,63.320755 
	C151.103180,57.770153 156.215866,52.144287 161.527008,46.712460 
	C170.414703,37.622791 178.791565,27.922600 190.816971,22.579483 
	C198.793396,19.035398 202.802078,21.529375 203.007492,30.329891 
	C203.335312,44.375202 198.352783,57.418911 195.580475,70.885582 
	C192.934158,83.740318 190.403595,96.629105 188.320969,109.583122 
	C187.734894,113.228416 188.612747,117.213058 189.340286,120.940315 
	C190.343628,126.080544 193.533295,127.252747 196.942505,123.306717 
	C203.440765,115.785210 209.639191,107.949234 215.338623,99.807365 
	C222.100677,90.147469 228.009674,79.890945 234.754501,70.218002 
	C236.154984,68.209549 239.683121,66.556564 242.071152,66.746414 
	C243.770325,66.881500 246.470673,70.366936 246.495468,72.384544 
	C246.551498,76.944344 245.537186,81.599586 244.403229,86.075394 
	C241.631821,97.014297 238.450821,107.849510 235.687576,118.790337 
	C235.271423,120.438103 236.213989,122.429031 236.528076,124.261215 
	C238.508026,123.810722 241.201843,124.022766 242.342697,122.793510 
	C246.951813,117.827309 251.653671,112.777351 255.247467,107.080856 
	C259.933655,99.652863 263.610229,91.587013 267.704041,83.786621 
	C270.075989,79.267097 273.395752,78.819832 275.669769,83.322937 
	C278.341370,88.613304 280.649475,94.252792 282.019806,100.001961 
	C285.367096,114.045761 287.846436,128.295013 291.115051,142.359329 
	C294.922455,158.741913 287.252625,166.355194 272.809387,170.847351 
	C261.680328,174.308716 249.766815,175.628845 238.092636,176.877548 
	C213.354004,179.523666 188.546402,181.530701 163.756195,183.673874 
	C162.401138,183.791031 160.946686,182.758392 159.483551,181.888351 
M150.985062,94.327728 
	C151.426437,87.892754 150.423279,81.770462 147.479721,75.942673 
	C145.559937,72.141785 143.331924,72.232796 141.276520,75.395737 
	C133.509247,87.348259 125.138969,99.008377 118.538757,111.588219 
	C113.305000,121.563614 111.644714,132.798798 116.538826,143.904434 
	C118.439011,148.216278 121.175262,149.275726 124.730881,146.604279 
	C133.485779,140.026459 141.109314,132.084198 144.890610,121.817337 
	C148.003204,113.366119 149.021194,104.143471 150.985062,94.327728 
z"/>
<path fill="#2F2F2F" opacity="1.000000" stroke="none" 
	d="
M438.141235,116.017159 
	C437.581024,114.256958 437.121155,112.850830 437.046631,112.622963 
	C433.602386,118.178223 430.112366,124.622650 425.741272,130.400513 
	C424.276520,132.336670 419.943512,134.025177 418.040955,133.211014 
	C415.770721,132.239487 413.897675,128.628937 413.310822,125.853294 
	C412.517975,122.103226 413.113800,118.059547 413.113800,114.141846 
	C412.615479,114.016342 412.117157,113.890846 411.618835,113.765343 
	C409.633850,117.089615 407.767395,120.492004 405.639069,123.721825 
	C401.266785,130.356995 396.826569,136.950272 392.273529,143.462372 
	C389.353271,147.639145 385.054840,148.949051 380.379791,147.430771 
	C375.886108,145.971375 373.931091,141.957565 374.147858,137.575043 
	C374.581512,128.807785 375.603943,120.069550 376.392120,111.320129 
	C376.458344,110.584740 376.591400,109.855354 376.877075,107.804970 
	C371.723572,115.300522 367.690887,121.943031 362.888367,127.972328 
	C355.321686,137.471771 346.134613,145.193558 333.980042,147.914413 
	C330.052429,148.793640 325.387146,148.153595 321.479950,146.898712 
	C316.590393,145.328339 315.188782,140.065079 317.971130,134.737152 
	C323.115662,124.885773 328.824921,115.329208 333.965149,105.475708 
	C336.804474,100.032921 341.346558,95.141449 340.828613,87.311722 
	C334.179108,89.830116 328.039001,92.139572 321.911102,94.480980 
	C315.941925,96.761734 309.973145,98.569389 303.887787,95.716248 
	C303.784821,95.221893 303.681854,94.727539 303.578888,94.233185 
	C308.283112,92.508881 312.929230,90.598938 317.705017,89.103149 
	C325.137695,86.775223 332.671387,84.772049 340.137421,82.547852 
	C345.165680,81.049896 346.903137,82.558807 346.326843,87.680809 
	C344.974060,99.703781 338.835022,109.322479 331.916473,118.851357 
	C327.985870,124.264893 325.397003,130.725021 322.682861,136.923569 
	C320.919495,140.950806 323.328735,142.714493 327.295837,142.962509 
	C336.437103,143.533997 343.919647,139.177460 350.404999,133.830719 
	C366.223694,120.789368 375.500427,103.287506 382.170715,84.220398 
	C382.547699,83.142715 384.054962,82.460442 385.036163,81.594131 
	C385.565186,82.843094 386.731384,84.211311 386.523468,85.322372 
	C384.692566,95.106010 382.204315,104.782623 380.745331,114.614777 
	C379.585205,122.432808 379.316467,130.420349 379.200836,138.340637 
	C379.141724,142.386490 382.273895,144.039871 385.767090,141.872009 
	C388.494965,140.179092 391.219818,137.798767 392.803528,135.062607 
	C399.768311,123.029785 406.293243,110.742905 413.059082,98.593506 
	C413.710052,97.424576 414.924622,96.569511 415.877533,95.568733 
	C416.808136,96.641785 418.479675,97.673981 418.541504,98.794952 
	C418.813690,103.729866 418.683136,108.691742 418.575043,113.641151 
	C418.506256,116.790764 418.007233,119.943886 418.128143,123.078979 
	C418.184143,124.531380 419.258728,125.944511 419.871521,127.375443 
	C421.118011,126.522446 422.882599,125.950409 423.523315,124.768898 
	C426.669495,118.967232 429.437592,112.961693 432.518188,107.122604 
	C433.443542,105.368698 434.945587,103.919060 436.183411,102.330017 
	C437.862579,103.778778 440.343475,104.912247 441.061859,106.738861 
	C442.812103,111.189377 443.843994,115.937172 444.982147,120.609825 
	C446.362610,126.277039 447.731720,127.002235 453.270630,125.297539 
	C454.481201,124.924965 456.076599,125.802849 457.494781,126.104851 
	C456.824921,127.447281 456.503418,129.274887 455.425415,130.048920 
	C450.513550,133.575912 444.891846,132.214294 442.001068,126.633797 
	C440.338806,123.424866 439.468445,119.805717 438.141235,116.017159 
z"/>
<path fill="#000000" opacity="1.000000" stroke="none" 
	d="
M150.976273,94.795219 
	C149.021194,104.143471 148.003204,113.366119 144.890610,121.817337 
	C141.109314,132.084198 133.485779,140.026459 124.730881,146.604279 
	C121.175262,149.275726 118.439011,148.216278 116.538826,143.904434 
	C111.644714,132.798798 113.305000,121.563614 118.538757,111.588219 
	C125.138969,99.008377 133.509247,87.348259 141.276520,75.395737 
	C143.331924,72.232796 145.559937,72.141785 147.479721,75.942673 
	C150.423279,81.770462 151.426437,87.892754 150.976273,94.795219 
z"/>
</svg>